<svg width="79" height="21" viewBox="0 0 79 21" fill="none" xmlns="http://www.w3.org/2000/svg">
<path d="M0.97175 20V0.791999H4.61175V16.836H14.2438V20H0.97175ZM24.9128 20.336C22.9155 20.336 21.1888 19.9813 19.7328 19.272C18.2768 18.544 17.1568 17.4427 16.3728 15.968C15.6075 14.4933 15.2248 12.636 15.2248 10.396C15.2248 8.13733 15.6075 6.28 16.3728 4.824C17.1568 3.34933 18.2768 2.25733 19.7328 1.548C21.1888 0.819999 22.9155 0.456 24.9128 0.456C26.9288 0.456 28.6555 0.819999 30.0928 1.548C31.5488 2.25733 32.6595 3.34933 33.4248 4.824C34.2088 6.28 34.6008 8.13733 34.6008 10.396C34.6008 12.636 34.2088 14.4933 33.4248 15.968C32.6595 17.4427 31.5488 18.544 30.0928 19.272C28.6555 19.9813 26.9288 20.336 24.9128 20.336ZM24.9128 17.256C25.8835 17.256 26.7328 17.116 27.4608 16.836C28.2075 16.556 28.8328 16.1453 29.3368 15.604C29.8408 15.044 30.2235 14.3627 30.4848 13.56C30.7462 12.7387 30.8768 11.796 30.8768 10.732V10.116C30.8768 9.03333 30.7462 8.08133 30.4848 7.26C30.2235 6.43867 29.8408 5.75733 29.3368 5.216C28.8328 4.656 28.2075 4.236 27.4608 3.956C26.7328 3.676 25.8835 3.536 24.9128 3.536C23.9422 3.536 23.0835 3.676 22.3368 3.956C21.6088 4.236 20.9928 4.656 20.4888 5.216C19.9848 5.75733 19.6022 6.43867 19.3408 7.26C19.0982 8.08133 18.9768 9.03333 18.9768 10.116V10.732C18.9768 11.796 19.0982 12.7387 19.3408 13.56C19.6022 14.3627 19.9848 15.044 20.4888 15.604C20.9928 16.1453 21.6088 16.556 22.3368 16.836C23.0835 17.116 23.9422 17.256 24.9128 17.256ZM46.7312 20.336C43.7632 20.336 41.4579 19.5427 39.8152 17.956C38.1725 16.3507 37.3512 13.8307 37.3512 10.396C37.3512 8.13733 37.7339 6.28 38.4992 4.824C39.2832 3.34933 40.4032 2.25733 41.8592 1.548C43.3339 0.819999 45.0979 0.456 47.1512 0.456C48.3832 0.456 49.5405 0.595999 50.6232 0.875999C51.7059 1.156 52.6579 1.58533 53.4792 2.164C54.3192 2.724 54.9725 3.43333 55.4392 4.292C55.9059 5.15067 56.1392 6.168 56.1392 7.344H52.3872C52.3872 6.728 52.2472 6.18667 51.9672 5.72C51.7059 5.23467 51.3325 4.83333 50.8472 4.516C50.3805 4.18 49.8392 3.93733 49.2232 3.788C48.6072 3.62 47.9539 3.536 47.2632 3.536C46.2365 3.536 45.3312 3.676 44.5472 3.956C43.7819 4.21733 43.1379 4.628 42.6152 5.188C42.1112 5.72933 41.7285 6.41067 41.4672 7.232C41.2245 8.05333 41.1032 9.01467 41.1032 10.116V10.704C41.1032 12.216 41.3179 13.4573 41.7472 14.428C42.1765 15.3987 42.8205 16.1173 43.6792 16.584C44.5565 17.032 45.6392 17.256 46.9272 17.256C48.0285 17.256 48.9899 17.088 49.8112 16.752C50.6512 16.416 51.3045 15.9307 51.7712 15.296C52.2565 14.6427 52.4992 13.8493 52.4992 12.916V12.72H46.3672V9.696H56.1392V20H53.5352L53.2272 17.872C52.6672 18.432 52.0699 18.8987 51.4352 19.272C50.8005 19.6267 50.1005 19.888 49.3352 20.056C48.5699 20.2427 47.7019 20.336 46.7312 20.336ZM69.0457 20.336C67.0483 20.336 65.3217 19.9813 63.8657 19.272C62.4097 18.544 61.2897 17.4427 60.5057 15.968C59.7403 14.4933 59.3577 12.636 59.3577 10.396C59.3577 8.13733 59.7403 6.28 60.5057 4.824C61.2897 3.34933 62.4097 2.25733 63.8657 1.548C65.3217 0.819999 67.0483 0.456 69.0457 0.456C71.0617 0.456 72.7883 0.819999 74.2257 1.548C75.6817 2.25733 76.7923 3.34933 77.5577 4.824C78.3417 6.28 78.7337 8.13733 78.7337 10.396C78.7337 12.636 78.3417 14.4933 77.5577 15.968C76.7923 17.4427 75.6817 18.544 74.2257 19.272C72.7883 19.9813 71.0617 20.336 69.0457 20.336ZM69.0457 17.256C70.0163 17.256 70.8657 17.116 71.5937 16.836C72.3403 16.556 72.9657 16.1453 73.4697 15.604C73.9737 15.044 74.3563 14.3627 74.6177 13.56C74.879 12.7387 75.0097 11.796 75.0097 10.732V10.116C75.0097 9.03333 74.879 8.08133 74.6177 7.26C74.3563 6.43867 73.9737 5.75733 73.4697 5.216C72.9657 4.656 72.3403 4.236 71.5937 3.956C70.8657 3.676 70.0163 3.536 69.0457 3.536C68.075 3.536 67.2163 3.676 66.4697 3.956C65.7417 4.236 65.1257 4.656 64.6217 5.216C64.1177 5.75733 63.735 6.43867 63.4737 7.26C63.231 8.08133 63.1097 9.03333 63.1097 10.116V10.732C63.1097 11.796 63.231 12.7387 63.4737 13.56C63.735 14.3627 64.1177 15.044 64.6217 15.604C65.1257 16.1453 65.7417 16.556 66.4697 16.836C67.2163 17.116 68.075 17.256 69.0457 17.256Z" fill="#F2F2F2"/>
</svg>
